<svg width="190" height="167" viewBox="0 0 190 167" fill="none" xmlns="http://www.w3.org/2000/svg">
    <path d="M15.4772 46.718L12.1952 51.7409L22.2409 58.3048L25.5228 53.282L15.4772 46.718ZM22.0046 98.1917C18.7968 97.3607 15.5227 99.2875 14.6917 102.495L1.14988 154.77C0.318888 157.978 2.24569 161.252 5.45351 162.083C8.66133 162.914 11.9354 160.987 12.7664 157.779L24.8036 111.313L71.2698 123.35C74.4776 124.181 77.7517 122.254 78.5827 119.046C79.4137 115.839 77.4869 112.565 74.2791 111.734L22.0046 98.1917ZM20.5 50C25.5228 53.282 25.5219 53.2834 25.521 53.2847C25.5209 53.2849 25.5201 53.2861 25.5199 53.2865C25.5193 53.2873 25.5192 53.2875 25.5195 53.2871C25.5201 53.2861 25.5224 53.2826 25.5265 53.2764C25.5346 53.2642 25.5496 53.2416 25.5713 53.209C25.6149 53.1439 25.6856 53.039 25.783 52.8968C25.9779 52.6123 26.2793 52.1793 26.6834 51.619C27.492 50.4978 28.709 48.8705 30.3034 46.9059C33.499 42.9682 38.1733 37.7216 44.0743 32.4894C55.9958 21.9193 72.244 12 91 12V0C68.006 0 49.0042 12.0807 36.1132 23.5106C29.608 29.2784 24.4854 35.0318 20.9857 39.3441C19.2324 41.5045 17.8772 43.3147 16.9504 44.5997C16.4868 45.2426 16.1298 45.7549 15.8831 46.115C15.7598 46.295 15.664 46.4371 15.5962 46.5385C15.5623 46.5892 15.5354 46.6297 15.5155 46.6598C15.5056 46.6748 15.4974 46.6872 15.491 46.6969C15.4878 46.7018 15.4851 46.706 15.4828 46.7095C15.4816 46.7113 15.4802 46.7134 15.4796 46.7143C15.4784 46.7162 15.4772 46.718 20.5 50ZM91 12C110.427 12 132.461 19.8599 149.614 32.4055C166.879 45.0323 178 61.4581 178 78H190C190 56.0419 175.496 36.4677 156.698 22.7195C137.789 8.89009 113.323 0 91 0V12ZM178 78C178 98.7115 167.813 117.792 151.992 131.824C136.155 145.869 115.045 154.5 94 154.5V166.5C118.217 166.5 142.107 156.631 159.955 140.801C177.818 124.958 190 102.789 190 78H178ZM94 154.5C76.5203 154.5 59.6678 142.05 46.5178 128.13C40.0922 121.328 34.8561 114.501 31.2229 109.364C29.4102 106.8 28.0062 104.672 27.0624 103.196C26.5907 102.458 26.2345 101.884 26.0004 101.502C25.8833 101.31 25.7968 101.167 25.7416 101.075C25.714 101.029 25.6943 100.996 25.6825 100.976C25.6766 100.966 25.6727 100.96 25.6707 100.956C25.6698 100.955 25.6693 100.954 25.6694 100.954C25.6694 100.954 25.6698 100.955 25.6698 100.955C25.6704 100.956 25.671 100.957 20.5 104C15.329 107.043 15.3299 107.045 15.3309 107.046C15.3315 107.047 15.3326 107.049 15.3337 107.051C15.3357 107.055 15.3383 107.059 15.3414 107.064C15.3476 107.075 15.3558 107.088 15.366 107.106C15.3865 107.14 15.4151 107.188 15.4516 107.249C15.5247 107.371 15.6298 107.545 15.7661 107.767C16.0387 108.213 16.4362 108.853 16.9523 109.66C17.984 111.273 19.4921 113.559 21.4255 116.293C25.2845 121.749 30.8765 129.047 37.7947 136.37C51.3322 150.7 71.2298 166.5 94 166.5V154.5Z" fill="black"/>
</svg>
